<svg width="139" height="114" viewBox="0 0 139 114" fill="none" xmlns="http://www.w3.org/2000/svg">
<path opacity="0.2" d="M98.6035 23H110.396C110.73 23 111 23.2702 111 23.6035V32.3965C111 32.7298 110.73 33 110.396 33H101.219C101.077 33 100.941 33.0495 100.832 33.1399L98.9899 34.6751C98.5968 35.0027 98 34.7231 98 34.2114V33V23.6035C98 23.2702 98.2702 23 98.6035 23Z" fill="#FFCF10"/>
<path d="M100.104 21.5H111.896C112.23 21.5 112.5 21.7702 112.5 22.1035V30.8965C112.5 31.2298 112.23 31.5 111.896 31.5H104.114C103.994 31.5 103.876 31.5359 103.776 31.6031L100.441 33.8521C100.04 34.1224 99.5 33.8351 99.5 33.3517V31.5V22.1035C99.5 21.7702 99.7702 21.5 100.104 21.5V21.5Z" stroke="#FFCF10" stroke-linecap="round" stroke-linejoin="round"/>
<path opacity="0.2" d="M53.3233 84H39.6767C39.303 84 39 84.303 39 84.6767V94.3125C39 94.6863 39.303 94.9892 39.6767 94.9892H50.9866C51.1976 94.9892 51.3965 95.0877 51.5245 95.2555L52.7853 96.9079C53.1781 97.4227 54 97.145 54 96.4975V95.5038V84.6767C54 84.303 53.697 84 53.3233 84Z" fill="#F48024"/>
<path d="M51.8233 82.5H38.1767C37.803 82.5 37.5 82.803 37.5 83.1767V92.8233C37.5 93.197 37.803 93.5 38.1767 93.5H47.6992C47.8638 93.5 48.0227 93.56 48.1462 93.6687L51.3763 96.5111C51.8134 96.8958 52.5 96.5854 52.5 96.0031V93.5V83.1767C52.5 82.803 52.197 82.5 51.8233 82.5V82.5Z" stroke="#F48024" stroke-linecap="round" stroke-linejoin="round"/>
<path d="M86.5135 13H37.4865C33.9041 13 31 15.9041 31 19.4865V68.5135C31 72.0959 33.9041 75 37.4865 75H86.5135C90.0959 75 93 72.0959 93 68.5135V19.4865C93 15.9041 90.0959 13 86.5135 13Z" fill="#0C0D0E"/>
<path d="M47 32H54V33H47V32Z" fill="white"/>
<path d="M58.5191 29.6461C58.5191 29.3062 58.5265 29.0181 58.5414 28.7817C58.5612 28.5453 58.6033 28.3336 58.6677 28.1464C58.7321 27.9543 58.8287 27.7795 58.9575 27.6219C59.0863 27.4594 59.2672 27.287 59.5 27.1048C59.6684 26.9521 59.8369 26.792 60.0053 26.6246C60.1737 26.4522 60.3248 26.2774 60.4586 26.1001C60.5973 25.9178 60.7088 25.7332 60.793 25.546C60.8772 25.3589 60.9193 25.1717 60.9193 24.9846C60.9193 24.5364 60.7979 24.2089 60.5552 24.002C60.3125 23.7952 59.9582 23.6917 59.4926 23.6917C59.3142 23.6917 59.1408 23.7164 58.9724 23.7656C58.804 23.8099 58.6529 23.8838 58.5191 23.9872C58.3903 24.0907 58.2838 24.2236 58.1996 24.3862C58.1203 24.5487 58.0782 24.7432 58.0732 24.9698H56C56.005 24.4674 56.0991 24.0316 56.2824 23.6622C56.4657 23.2879 56.7134 22.9776 57.0255 22.7314C57.3376 22.4851 57.7042 22.3029 58.1253 22.1847C58.5464 22.0616 59.0021 22 59.4926 22C60.0425 22 60.5354 22.0616 60.9713 22.1847C61.4073 22.3078 61.7739 22.4925 62.0711 22.7388C62.3733 22.9801 62.6037 23.2805 62.7622 23.64C62.9207 23.9996 63 24.4157 63 24.8885C63 25.2382 62.9406 25.5583 62.8217 25.8489C62.7028 26.1345 62.5492 26.403 62.3609 26.6541C62.1727 26.9004 61.9572 27.1368 61.7144 27.3633C61.4766 27.585 61.2364 27.8017 60.9936 28.0134C60.845 28.1612 60.7286 28.2917 60.6444 28.405C60.5602 28.5182 60.4982 28.634 60.4586 28.7522C60.4239 28.8704 60.4016 29.0009 60.3917 29.1437C60.3818 29.2816 60.3769 29.4491 60.3769 29.6461H58.5191ZM58.2144 31.8845C58.2144 31.722 58.2417 31.5717 58.2962 31.4338C58.3507 31.291 58.4299 31.1679 58.534 31.0645C58.638 30.961 58.7643 30.8822 58.913 30.8281C59.0616 30.769 59.23 30.7394 59.4183 30.7394C59.6016 30.7394 59.7675 30.769 59.9161 30.8281C60.0697 30.8822 60.1985 30.961 60.3025 31.0645C60.4066 31.1679 60.4858 31.291 60.5403 31.4338C60.5998 31.5717 60.6295 31.722 60.6295 31.8845C60.6295 32.0421 60.5998 32.1898 60.5403 32.3277C60.4858 32.4656 60.4066 32.5838 60.3025 32.6823C60.1985 32.7808 60.0697 32.8572 59.9161 32.9114C59.7675 32.9705 59.6016 33 59.4183 33C59.23 33 59.0616 32.9705 58.913 32.9114C58.7643 32.8572 58.638 32.7808 58.534 32.6823C58.4299 32.5838 58.3507 32.4656 58.2962 32.3277C58.2417 32.1898 58.2144 32.0421 58.2144 31.8845Z" fill="#0095FF"/>
<path d="M38 24L44 28.5L38 33" stroke="white"/>
<path d="M118.127 41.5H65.8726C63.4577 41.5 61.5 43.4577 61.5 45.8726V98.1274C61.5 100.542 63.4577 102.5 65.8726 102.5H118.127C120.542 102.5 122.5 100.542 122.5 98.1274V45.8726C122.5 43.4577 120.542 41.5 118.127 41.5Z" fill="white" stroke="#E4E6E8"/>
<path d="M81.3761 68.0746L79.8015 66.5L72.4421 73.8594L69.5497 70.967L67.9751 72.5416L72.4421 77.0086L81.3761 68.0746Z" fill="#6ECB64"/>
<path opacity="0.5" d="M116.549 52H85.4506C85.2018 52 85 52.2018 85 52.4506V61.5494C85 61.7982 85.2018 62 85.4506 62H116.549C116.798 62 117 61.7982 117 61.5494V52.4506C117 52.2018 116.798 52 116.549 52Z" fill="url(#paint0_linear_34_585)"/>
<path opacity="0.5" d="M116.549 67H85.4506C85.2018 67 85 67.2018 85 67.4506V76.5494C85 76.7982 85.2018 77 85.4506 77H116.549C116.798 77 117 76.7982 117 76.5494V67.4506C117 67.2018 116.798 67 116.549 67Z" fill="url(#paint1_linear_34_585)"/>
<path opacity="0.5" d="M110.549 82H85.4506C85.2018 82 85 82.2018 85 82.4506V91.5494C85 91.7982 85.2018 92 85.4506 92H110.549C110.798 92 111 91.7982 111 91.5494V82.4506C111 82.2018 110.798 82 110.549 82Z" fill="url(#paint2_linear_34_585)"/>
<path d="M82 82H67L75 90L82 82Z" fill="#E4E6E8"/>
<path d="M67 62H82L74 54L67 62Z" fill="#E4E6E8"/>
<path d="M47 46H9C7.89543 46 7 46.8954 7 48V64C7 65.1046 7.89543 66 9 66H47C48.1046 66 49 65.1046 49 64V48C49 46.8954 48.1046 46 47 46Z" fill="url(#paint3_linear_34_585)"/>
<path d="M15.7131 59.2498L16.6811 59.0836V52.272L15.7131 52.1058V51.3516H22.394V53.4301H21.3963L21.3013 52.272H17.851V55.2532H21.1944V56.1737H17.851V59.0836L18.819 59.2498V59.9981H15.7131V59.2498ZM23.2313 54.3268V53.5726H25.2445L25.3573 54.5049C25.5395 54.1763 25.7631 53.919 26.0284 53.7329C26.2976 53.5468 26.6044 53.4538 26.9489 53.4538C27.0399 53.4538 27.133 53.4617 27.228 53.4776C27.327 53.4894 27.4022 53.5033 27.4537 53.5191L27.2993 54.6059L26.6341 54.5703C26.3253 54.5703 26.066 54.6435 25.8562 54.79C25.6464 54.9325 25.484 55.1344 25.3692 55.3957V59.0836L26.3372 59.2498V59.9981H23.2313V59.2498L24.1993 59.0836V54.4931L23.2313 54.3268ZM31.0821 60.1228C30.1874 60.1228 29.4747 59.8259 28.9442 59.232C28.4177 58.6342 28.1544 57.8602 28.1544 56.9101V56.6488C28.1544 55.7342 28.4256 54.9741 28.968 54.3683C29.5143 53.7587 30.1597 53.4538 30.904 53.4538C31.767 53.4538 32.4203 53.7151 32.8637 54.2377C33.311 54.7603 33.5347 55.4571 33.5347 56.3281V57.0585H29.3659L29.3481 57.0882C29.3599 57.7058 29.5163 58.2146 29.8172 58.6144C30.1181 59.0103 30.5397 59.2083 31.0821 59.2083C31.478 59.2083 31.8244 59.1528 32.1214 59.042C32.4222 58.9272 32.6816 58.7708 32.8993 58.5728L33.3566 59.333C33.127 59.5547 32.8221 59.7427 32.442 59.8971C32.0659 60.0476 31.6126 60.1228 31.0821 60.1228ZM30.904 54.3743C30.512 54.3743 30.1775 54.5406 29.9003 54.8731C29.6232 55.2017 29.453 55.6154 29.3896 56.1143L29.4015 56.144H32.3648V55.9896C32.3648 55.5303 32.2421 55.1463 31.9966 54.8375C31.7512 54.5287 31.387 54.3743 30.904 54.3743ZM37.6264 60.1228C36.7317 60.1228 36.019 59.8259 35.4885 59.232C34.962 58.6342 34.6987 57.8602 34.6987 56.9101V56.6488C34.6987 55.7342 34.9699 54.9741 35.5123 54.3683C36.0586 53.7587 36.7039 53.4538 37.4482 53.4538C38.3113 53.4538 38.9646 53.7151 39.408 54.2377C39.8553 54.7603 40.079 55.4571 40.079 56.3281V57.0585H35.9102L35.8923 57.0882C35.9042 57.7058 36.0606 58.2146 36.3615 58.6144C36.6624 59.0103 37.084 59.2083 37.6264 59.2083C38.0223 59.2083 38.3687 59.1528 38.6656 59.042C38.9665 58.9272 39.2259 58.7708 39.4436 58.5728L39.9009 59.333C39.6712 59.5547 39.3664 59.7427 38.9863 59.8971C38.6102 60.0476 38.1569 60.1228 37.6264 60.1228ZM37.4482 54.3743C37.0563 54.3743 36.7218 54.5406 36.4446 54.8731C36.1675 55.2017 35.9973 55.6154 35.9339 56.1143L35.9458 56.144H38.9091V55.9896C38.9091 55.5303 38.7864 55.1463 38.5409 54.8375C38.2955 54.5287 37.9312 54.3743 37.4482 54.3743Z" fill="white"/>
<defs>
<linearGradient id="paint0_linear_34_585" x1="84.8958" y1="56.7916" x2="129.475" y2="56.7916" gradientUnits="userSpaceOnUse">
<stop stop-color="#D6D9DC"/>
<stop offset="1" stop-color="#EFF0F1"/>
</linearGradient>
<linearGradient id="paint1_linear_34_585" x1="84.8958" y1="71.7916" x2="129.475" y2="71.7916" gradientUnits="userSpaceOnUse">
<stop stop-color="#D6D9DC"/>
<stop offset="1" stop-color="#EFF0F1"/>
</linearGradient>
<linearGradient id="paint2_linear_34_585" x1="84.9154" y1="86.7916" x2="121.136" y2="86.7916" gradientUnits="userSpaceOnUse">
<stop stop-color="#D6D9DC"/>
<stop offset="1" stop-color="#EFF0F1"/>
</linearGradient>
<linearGradient id="paint3_linear_34_585" x1="7" y1="56" x2="49" y2="56" gradientUnits="userSpaceOnUse">
<stop stop-color="#6521B1"/>
<stop offset="1" stop-color="#EB4426"/>
</linearGradient>
</defs>
</svg>
