<svg width="26" height="26" viewBox="0 0 26 26" fill="none" xmlns="http://www.w3.org/2000/svg">
<path d="M24.7427 2.09961C24.6898 1.97629 24.5905 1.87872 24.4663 1.82794C24.3421 1.77717 24.203 1.77728 24.0788 1.82824C22.6484 2.40633 22.2272 3.2298 21.8217 4.1077C21.8558 4.00167 21.8883 3.89686 21.9192 3.79489C22.1873 2.92105 22.3641 2.34377 23.4301 1.74617C23.4878 1.71445 23.5385 1.67153 23.5794 1.61992C23.6203 1.56831 23.6505 1.50906 23.6681 1.44564C23.6858 1.38222 23.6906 1.3159 23.6823 1.25059C23.674 1.18528 23.6528 1.12228 23.6198 1.0653C23.5518 0.949434 23.441 0.864944 23.3112 0.83006C23.1815 0.795175 23.0432 0.812691 22.9263 0.878829C21.5073 1.67345 21.2347 2.56436 20.9458 3.50727C20.7569 4.12314 20.5534 4.78533 19.9891 5.56208C19.5203 5.35652 19.1665 5.21799 18.7472 5.32117L17.6349 4.22836C17.2368 3.83722 16.7004 3.61909 16.1423 3.62142C15.5785 3.62142 15.0487 3.83674 14.6506 4.22836L1.21875 17.4234L9.11788 17.4282L9.12316 25.188L22.555 11.9934C22.7502 11.8024 22.9053 11.5743 23.0111 11.3226C23.117 11.0708 23.1715 10.8005 23.1715 10.5274C23.1714 10.2543 23.1169 9.98394 23.0109 9.73222C22.905 9.4805 22.7498 9.25247 22.5546 9.06152L21.4374 7.96424C21.5325 7.5917 21.4496 7.25249 21.2908 6.84055C21.2908 6.84055 21.2477 6.88442 21.1656 6.9612C22.0147 6.09386 22.3868 5.30574 22.7025 4.61958C23.0953 3.76564 23.3545 3.20136 24.466 2.75164C24.5274 2.72757 24.5834 2.69148 24.6307 2.64548C24.678 2.59948 24.7156 2.54451 24.7414 2.48378C24.7672 2.42305 24.7805 2.35779 24.7808 2.29182C24.781 2.22586 24.768 2.16051 24.7427 2.09961ZM17.0523 7.86064C17.0946 7.89883 17.1421 7.93336 17.1986 7.95611C17.2933 7.99376 17.3971 8.00231 17.4966 7.98067C17.5962 7.95903 17.6871 7.90819 17.7576 7.83464C18.0333 7.89181 18.2868 8.02689 18.488 8.22383C18.6908 8.42289 18.8252 8.67111 18.8841 8.94045C18.8096 9.00832 18.7578 9.09745 18.7356 9.19577C18.7134 9.29409 18.722 9.39684 18.7602 9.49011C18.7834 9.54617 18.8187 9.59249 18.8573 9.63474C18.7908 9.87343 18.6636 10.0908 18.488 10.2656C17.9323 10.8108 16.9646 10.8108 16.4097 10.2656C16.2731 10.133 16.1647 9.97428 16.0907 9.7989C16.0167 9.62353 15.9788 9.43507 15.979 9.24474C15.9787 9.05444 16.0166 8.86602 16.0906 8.69069C16.1645 8.51537 16.2731 8.35673 16.4097 8.22424C16.5892 8.04993 16.8105 7.92472 17.0523 7.86064Z" fill="#699BF7"/>
</svg>
