<svg width="18" height="18" viewBox="0 0 18 18" fill="none" xmlns="http://www.w3.org/2000/svg">
<g clip-path="url(#clip0_50_89)">
<path d="M3.28669 0C1.46601 0 0 1.46601 0 3.28669V14.7133C0 16.534 1.46601 18 3.28669 18H9.47983V10.9631H7.61908V8.42963H9.47983V6.26513C9.47983 4.56458 10.5792 3.00319 13.1119 3.00319C14.1373 3.00319 14.8956 3.10163 14.8956 3.10163L14.8359 5.46752C14.8359 5.46752 14.0626 5.46021 13.2187 5.46021C12.3054 5.46021 12.159 5.88101 12.159 6.57959V8.42965H14.9085L14.7887 10.9632H12.159V18H14.7133C16.534 18 18 16.534 18 14.7133V3.28671C18 1.46603 16.534 1.8e-05 14.7133 1.8e-05H3.28667L3.28669 0Z" fill="white"/>
</g>
<defs>
<clipPath id="clip0_50_89">
<rect width="18" height="18" fill="white"/>
</clipPath>
</defs>
</svg>
