<svg width="12" height="12" viewBox="0 0 12 12" fill="none" xmlns="http://www.w3.org/2000/svg">
<path fill-rule="evenodd" clip-rule="evenodd" d="M11.9493 0.411334C11.916 0.331099 11.8673 0.258169 11.806 0.196667L11.8033 0.194C11.6786 0.0695967 11.5095 -0.000181665 11.3333 3.55212e-07H7.33333C7.15652 3.55212e-07 6.98695 0.0702382 6.86193 0.195262C6.73691 0.320287 6.66667 0.489856 6.66667 0.666667C6.66667 0.843478 6.73691 1.01305 6.86193 1.13807C6.98695 1.2631 7.15652 1.33333 7.33333 1.33333H9.724L4.862 6.19533C4.79833 6.25683 4.74754 6.3304 4.7126 6.41173C4.67766 6.49307 4.65927 6.58055 4.6585 6.66907C4.65773 6.75759 4.6746 6.84537 4.70812 6.9273C4.74164 7.00923 4.79114 7.08367 4.85374 7.14626C4.91633 7.20886 4.99077 7.25836 5.0727 7.29188C5.15463 7.3254 5.24241 7.34227 5.33093 7.3415C5.41945 7.34073 5.50693 7.32234 5.58827 7.2874C5.66961 7.25246 5.74317 7.20167 5.80467 7.138L10.6667 2.276V4.66667C10.6667 4.84348 10.7369 5.01305 10.8619 5.13807C10.987 5.2631 11.1565 5.33333 11.3333 5.33333C11.5101 5.33333 11.6797 5.2631 11.8047 5.13807C11.9298 5.01305 12 4.84348 12 4.66667V0.664667C11.9998 0.577725 11.9826 0.491662 11.9493 0.411334ZM0 3.33333C0 2.44928 0.351189 1.60143 0.976311 0.976311C1.60143 0.35119 2.44928 3.55212e-07 3.33333 3.55212e-07H4C4.17681 3.55212e-07 4.34638 0.0702382 4.4714 0.195262C4.59643 0.320287 4.66667 0.489856 4.66667 0.666667C4.66667 0.843478 4.59643 1.01305 4.4714 1.13807C4.34638 1.2631 4.17681 1.33333 4 1.33333H3.33333C2.8029 1.33333 2.29419 1.54405 1.91912 1.91912C1.54405 2.29419 1.33333 2.8029 1.33333 3.33333V8.66667C1.33333 9.1971 1.54405 9.70581 1.91912 10.0809C2.29419 10.456 2.8029 10.6667 3.33333 10.6667H8.66667C9.1971 10.6667 9.70581 10.456 10.0809 10.0809C10.456 9.70581 10.6667 9.1971 10.6667 8.66667V8C10.6667 7.82319 10.7369 7.65362 10.8619 7.5286C10.987 7.40357 11.1565 7.33333 11.3333 7.33333C11.5101 7.33333 11.6797 7.40357 11.8047 7.5286C11.9298 7.65362 12 7.82319 12 8V8.66667C12 9.55072 11.6488 10.3986 11.0237 11.0237C10.3986 11.6488 9.55072 12 8.66667 12H3.33333C2.44928 12 1.60143 11.6488 0.976311 11.0237C0.351189 10.3986 0 9.55072 0 8.66667V3.33333Z" fill="#0074CC"/>
</svg>
