<svg width="16" height="16" viewBox="0 0 16 16" fill="none" xmlns="http://www.w3.org/2000/svg">
<path d="M4.34067 8.66667C4.22806 8.66724 4.11561 8.67503 4.004 8.69C3.88533 8.70533 3.77667 8.73667 3.678 8.78533C3.58186 8.83243 3.49756 8.90056 3.43133 8.98467C3.366 9.06867 3.33333 9.18067 3.33333 9.318C3.33333 9.57333 3.414 9.75133 3.576 9.85133C3.73733 9.95 3.95667 10 4.23467 10C4.40133 10 4.54933 9.996 4.678 9.98867C4.80667 9.98067 4.914 9.96733 5 9.94667V8.75867C4.92136 8.72511 4.83828 8.7031 4.75333 8.69333C4.61666 8.67388 4.4787 8.66497 4.34067 8.66667ZM12.8567 10.5133C12.7427 10.324 12.61 10.1307 12.4613 9.93333C12.3131 9.7371 12.1568 9.54715 11.9927 9.364C11.8358 9.18872 11.6698 9.02182 11.4953 8.864C11.3439 8.72566 11.1831 8.59802 11.014 8.482V10.514H10.256V4.33733L11.014 4.20733V8.05933L11.4467 7.62867C11.604 7.47133 11.7587 7.312 11.9107 7.14933C12.0633 6.98667 12.2073 6.83067 12.3427 6.682C12.4787 6.53333 12.596 6.402 12.6933 6.288H13.5827C13.4573 6.42333 13.3213 6.572 13.1747 6.73467C13.028 6.89733 12.876 7.06133 12.718 7.226C12.56 7.392 12.4013 7.55733 12.2413 7.722L11.7887 8.18933C11.9513 8.31467 12.124 8.46867 12.3067 8.65267C12.4887 8.83667 12.6673 9.036 12.8447 9.25C13.0213 9.464 13.188 9.68067 13.346 9.90067C13.5033 10.12 13.6367 10.324 13.746 10.514L12.8567 10.5133ZM9.02067 10.3107C8.73 10.5107 8.316 10.6113 7.778 10.6113C7.40267 10.6113 7.10933 10.5807 6.89733 10.518C6.75099 10.4779 6.6068 10.4302 6.46533 10.3753L6.604 9.726C6.69067 9.75867 6.82933 9.80667 7.01933 9.87267C7.21 9.93667 7.46267 9.96933 7.778 9.96933C8.08733 9.96933 8.31733 9.92933 8.46667 9.84733C8.616 9.766 8.69067 9.636 8.69067 9.45733C8.69324 9.37171 8.67448 9.28679 8.63607 9.21021C8.59767 9.13364 8.54083 9.06782 8.47067 9.01867C8.324 8.91 8.082 8.78867 7.74533 8.65267C7.58724 8.59016 7.43075 8.5237 7.276 8.45333C7.13664 8.39187 7.0065 8.31132 6.88933 8.214C6.78058 8.12171 6.69167 8.00831 6.628 7.88067C6.55857 7.73066 6.52501 7.56655 6.53 7.40133C6.53 7.028 6.66867 6.73067 6.946 6.51133C7.22333 6.29133 7.60133 6.182 8.07933 6.182C8.19867 6.182 8.31867 6.18867 8.438 6.20267C8.558 6.216 8.66933 6.232 8.77267 6.25133C8.92736 6.27942 9.07977 6.31886 9.22867 6.36933L9.09 7.01933C8.96742 6.96156 8.83918 6.91666 8.70733 6.88533C8.50177 6.83576 8.29076 6.81246 8.07933 6.816C7.86733 6.816 7.68267 6.858 7.52467 6.942C7.45098 6.9773 7.38928 7.03345 7.34721 7.10348C7.30514 7.17352 7.28455 7.25437 7.288 7.336C7.288 7.42867 7.306 7.50933 7.34133 7.58C7.38072 7.65524 7.43654 7.72063 7.50467 7.77133C7.578 7.828 7.66867 7.88067 7.778 7.92933C7.886 7.97867 8.01667 8.02933 8.16933 8.084C8.36933 8.16 8.54933 8.23467 8.70733 8.30733C8.86467 8.38067 8.99933 8.466 9.11067 8.56333C9.222 8.66067 9.308 8.77867 9.36733 8.91667C9.42733 9.05533 9.45733 9.22467 9.45733 9.42533C9.45733 9.81533 9.312 10.1107 9.02067 10.3107ZM5.70733 10.4407L5.434 10.486C5.31733 10.5047 5.18533 10.5227 5.038 10.5387C4.89133 10.5547 4.73267 10.5693 4.56133 10.5833C4.39067 10.5967 4.22067 10.6033 4.052 10.6033C3.82987 10.6052 3.6083 10.5806 3.392 10.53C3.20441 10.4876 3.02688 10.409 2.86933 10.2987C2.72117 10.1909 2.60336 10.0467 2.52733 9.88C2.446 9.70667 2.40467 9.498 2.40467 9.25467C2.40467 9.02133 2.452 8.82133 2.54733 8.65267C2.64267 8.48533 2.772 8.34933 2.93533 8.246C3.11123 8.13844 3.30424 8.06177 3.506 8.01933C3.73082 7.9697 3.96044 7.94511 4.19067 7.946C4.34788 7.94749 4.50467 7.96243 4.65933 7.99067C4.76142 8.00933 4.86321 8.02955 4.96467 8.05133V7.84C4.96467 7.71533 4.95133 7.592 4.92467 7.47067C4.89935 7.35307 4.84936 7.24218 4.778 7.14533C4.70188 7.04648 4.60217 6.96831 4.488 6.918C4.36533 6.86067 4.20667 6.832 4.01133 6.832C3.76133 6.832 3.542 6.85 3.35467 6.88533C3.21156 6.90857 3.07094 6.94518 2.93467 6.99467L2.84533 6.36933C2.94333 6.326 3.106 6.284 3.33467 6.24267C3.56267 6.20267 3.81 6.182 4.07667 6.182C4.38067 6.182 4.63733 6.222 4.84667 6.3C5.056 6.37867 5.22467 6.49 5.352 6.63333C5.48 6.77667 5.57067 6.94733 5.62533 7.14533C5.68 7.34333 5.70667 7.56133 5.70667 7.79933L5.70733 10.4407ZM16 7.974C16 3.57067 12.418 0 8 0C3.582 0 0 3.57067 0 7.974C0 12.3787 3.582 15.9493 8 15.9493C9.45133 15.9493 10.8113 15.5627 11.9853 14.8887L16 16L14.992 11.8493C15.6545 10.6652 16.0016 9.3308 16 7.974Z" fill="#EC6F22"/>
</svg>
