<svg width="16" height="15" viewBox="0 0 16 15" fill="none" xmlns="http://www.w3.org/2000/svg">
<path d="M7.97028 14.6562C4.02151 14.6562 0.815674 11.4502 0.815674 7.50125C0.815674 3.55226 4.02151 0.346249 7.97028 0.346249C11.9119 0.346249 15.1121 3.54081 15.1237 7.48007C15.1245 7.48711 15.1249 7.49418 15.1249 7.50125C15.1249 7.5076 15.1246 7.51395 15.124 7.52028C15.1137 11.4605 11.9128 14.6562 7.97028 14.6562ZM8.16345 14.2222C8.31628 14.2179 8.46824 14.2096 8.61849 14.1953C8.62736 14.1905 8.58715 14.1865 8.42002 14.1434C8.37509 14.172 8.27635 14.1978 8.16345 14.2221V14.2222ZM10.345 13.5578C10.4524 13.5764 10.6244 13.4738 10.5222 13.2753C10.8845 12.9233 11.2023 12.3269 10.5541 12.0667C10.4276 12.0122 10.2608 12.0566 10.2019 12.1883C10.331 12.1743 10.305 12.2507 10.1448 12.4545C10.497 12.382 9.71987 13.1835 9.75077 12.9707C8.93472 13.1783 9.91175 13.5484 10.295 13.3882C10.2397 13.4921 10.2806 13.5467 10.345 13.5578ZM10.955 13.5293C11.3265 13.3455 11.6802 13.1277 12.0115 12.8787C11.9853 12.8419 11.9937 12.8154 12.1131 12.799C13.6848 11.5683 14.6956 9.65448 14.6956 7.50125C14.6956 4.7533 13.0506 2.39401 10.6916 1.34995C10.8255 1.46687 10.9671 1.61211 11.106 1.67078C11.3959 1.95484 12.2068 2.52366 11.8501 2.87926C11.7147 3.15931 11.4268 3.36137 11.4136 3.70037C10.9993 3.8366 11.2989 4.80296 11.7508 4.29681C12.1112 3.88983 12.5047 4.67774 12.1775 4.55797C11.6784 4.53736 12.2496 4.92445 12.4951 5.05682C12.7181 5.52947 12.8065 4.32844 13.0292 4.83644C12.9419 4.71023 13.5941 4.37208 13.2979 4.89754C12.9084 4.89153 12.7185 5.41299 12.4081 5.4336C12.1792 5.74842 12.0501 5.4087 12.3041 5.3164C12.4415 4.98512 11.9593 5.10876 11.8109 4.9286C11.627 5.22925 10.9193 5.32384 10.4876 5.32355C10.227 5.42229 9.66106 5.5113 9.38832 5.43446C9.48162 5.15369 8.97107 4.78307 8.7819 5.19734C8.31241 5.21408 8.49285 5.39911 8.7467 5.60074C8.86833 6.13049 8.37967 5.34802 8.06358 5.68402C7.68538 5.46837 7.55817 4.95765 7.72659 4.6879C8.19594 4.15843 7.51754 4.239 7.12232 4.28579C7.47947 4.46653 6.76587 4.4236 6.43647 4.60262C6.32057 4.32815 5.3411 4.92946 5.92821 4.94076C6.36665 5.10905 5.4354 5.1806 5.55231 5.50601C5.40178 5.97165 5.39033 6.40138 4.93344 6.76242C4.60575 7.12232 5.03131 7.82122 5.26469 7.15323C5.47876 6.84814 5.61155 6.66182 5.91219 7.00627C6.44334 7.16396 6.33617 7.88776 5.98802 8.17282C5.41136 8.41637 6.43504 9.01468 6.22713 8.59639C5.8933 8.05648 6.75872 8.29846 6.56841 8.73577C7.2262 8.81448 7.86997 9.17752 8.13741 9.8116C8.56955 10.311 7.46846 10.8403 8.24587 11.0706C7.93966 11.3047 8.14557 11.2475 8.34261 11.3582C8.42703 11.3162 8.76244 10.9165 8.54208 10.7545C8.75886 10.4387 8.73282 10.5513 8.98194 10.7277C8.93758 10.4435 9.29631 10.4176 9.17011 10.0315C9.44942 10.2418 9.62471 10.6367 10.0175 10.6506C10.5419 10.5945 10.5957 11.301 10.2944 11.7018C10.5281 11.6769 11.0227 12.1855 11.0535 12.6045C11.2864 12.9081 10.7038 13.3965 10.9585 13.4595C10.9556 13.4827 10.9545 13.506 10.955 13.5293V13.5293ZM9.85981 12.7171C9.90989 12.6995 10.1574 12.0474 10.1278 11.9229C9.92778 11.7477 10.2972 11.229 9.98902 11.1975C9.81416 10.9299 9.47103 11.0787 9.24781 10.7269C9.24494 10.6671 9.10858 10.6691 9.14907 10.7448C9.25181 11.1659 8.63351 11.3597 9.07638 11.6677C9.40478 11.8108 9.86167 11.9511 9.89287 12.4801C9.84822 12.6583 9.84307 12.723 9.85995 12.7171H9.85981ZM1.713 9.92536C1.72646 9.92665 1.74177 9.91105 1.76022 9.87428C2.3396 9.79872 1.83864 9.41922 2.15101 9.12658C2.07546 8.51311 2.0663 7.84655 2.24116 7.23594C2.41287 7.23709 2.49085 7.32567 2.45923 6.90853C2.93787 6.62276 2.44979 7.61258 2.61162 7.83124C2.62379 8.38861 3.24094 8.59539 3.58551 8.96459C4.19508 9.20958 4.12067 8.34983 4.1915 8.02714C4.46052 8.08295 4.62865 8.08767 4.58687 7.67383C4.44177 7.26657 4.52519 6.7504 4.79936 6.41054C5.05893 5.62464 4.54036 6.61231 4.15015 6.56938C4.11438 6.2746 4.44964 5.91041 4.54666 5.6285C4.61205 5.0571 5.05692 5.14797 5.34268 4.73384C5.71314 4.28422 6.30512 4.21009 6.85516 4.14799C7.33667 4.1613 7.79814 3.82902 8.2008 3.89456C7.82633 3.97054 8.3831 4.19993 8.38024 4.02836C7.98387 3.4747 9.09913 4.18605 9.03403 4.2287C9.59924 4.17146 8.75757 4.49686 8.50659 4.28021C8.1915 4.01233 8.16975 4.60505 8.10107 4.24945C7.99117 4.37194 7.90417 5.0063 8.20309 4.52735C8.72824 4.31985 8.44005 4.86191 8.2008 5.09917C8.65369 5.10933 8.91583 4.6424 9.44785 4.85791C10.0563 4.53336 9.28558 5.17387 9.68452 5.1308C9.70098 4.5521 10.4458 5.01389 10.653 4.52119C10.2111 4.16716 10.779 4.38611 10.9778 4.20952C11.2155 4.20265 10.7915 3.08447 10.7063 3.3668C10.1885 3.32817 10.2746 3.4893 10.3967 3.87896C10.2874 3.89842 9.40177 4.04438 9.38217 3.74673C9.39262 3.26291 8.94917 3.61022 8.64854 3.45095C8.20581 3.14657 7.91004 2.65316 7.29231 2.69638C6.497 2.51937 7.32007 1.86282 7.27514 1.47474C7.81703 1.20356 8.52777 1.59837 9.12818 1.64431C9.57663 1.6466 9.82533 1.37056 10.212 1.35138C10.2487 1.2711 10.2898 1.2256 10.3342 1.20327C9.57831 0.919794 8.77754 0.774902 7.97028 0.775549C4.25346 0.775549 1.24495 3.78423 1.24495 7.50125C1.24495 8.04117 1.31034 8.56534 1.43025 9.06834C1.62386 9.29186 1.63173 9.91821 1.713 9.92522V9.92536ZM8.10894 9.3647C7.95297 9.37514 7.68152 9.12572 7.90961 8.86814C8.18907 8.74221 8.07588 8.89919 8.13126 9.01124C8.25432 9.2588 8.20238 9.35854 8.10894 9.3647ZM8.06529 8.4583C7.95468 8.44728 7.84379 8.32164 7.82719 8.05333C7.78955 7.65079 8.02966 7.3643 7.66263 7.06623C7.29732 6.69774 7.12704 6.08256 6.54723 5.9469C6.28895 5.41056 6.17419 6.16283 5.96813 6.1989C6.17891 5.88207 5.91748 5.33887 6.24259 5.14439C6.33617 4.75831 7.0502 4.86563 7.19272 4.7337C7.39219 4.62093 7.38933 5.4243 7.64775 5.45134C7.94338 5.62192 7.31792 5.95176 7.75264 6.08799C8.16417 6.0651 8.32171 6.84156 8.57756 6.25428C9.191 6.15754 8.92284 7.18729 8.66485 7.44544C8.7032 7.72263 7.94152 7.73021 8.29052 7.99351C8.34947 8.29774 8.20753 8.47261 8.06529 8.4583V8.4583ZM7.99146 7.2451C8.04826 7.07481 8.00033 7.10229 8.17089 7.15595C8.17376 6.88177 8.25618 6.44116 7.8973 6.31409L7.86353 6.28275L7.7565 6.28333C7.09484 6.55836 7.88614 6.91182 7.99146 7.2451V7.2451ZM9.23822 5.79407C9.108 5.80737 8.85259 5.52661 8.97779 5.19891C9.08826 4.96666 9.31234 5.23526 9.22849 5.39911C9.34954 5.672 9.31649 5.78591 9.23822 5.79407Z" fill="black"/>
</svg>
